<?xml version="1.0" encoding="UTF-8"?>
<svg width="2468px" height="2994px" viewBox="0 0 2468 2994" version="1.1" xmlns="http://www.w3.org/2000/svg" xmlns:xlink="http://www.w3.org/1999/xlink">
    <!-- Generator: Sketch 47.1 (45422) - http://www.bohemiancoding.com/sketch -->
    <title>image</title>
    <desc>Created with Sketch.</desc>
    <defs></defs>
    <g id="Page-1" stroke="none" stroke-width="1" fill="none" fill-rule="evenodd">
        <g id="image" fill-rule="nonzero">
            <g id="layer1">
                <path d="M1145,2984 C793,2938 219,2218 33,1589 C11,1514 6,1474 2,1330 C-4,1127 7,1018 49,895 C114,699 220,526 370,371 C592,139 821,25 1099,6 C1439,-17 1655,34 1894,193 C1980,250 2168,436 2234,528 C2299,621 2390,802 2421,905 C2485,1110 2482,1457 2416,1650 C2286,2027 2042,2422 1769,2696 C1583,2883 1448,2967 1309,2984 C1263,2990 1222,2994 1219,2994 C1216,2993 1183,2988 1145,2984 Z M1339,2913 C1607,2831 1967,2423 2205,1930 C2338,1656 2393,1458 2392,1265 C2389,782 2060,312 1606,141 C1478,93 1396,80 1224,81 C1086,82 1051,86 967,108 C589,208 279,504 141,897 C91,1038 76,1125 76,1275 C76,1393 80,1424 106,1525 C192,1849 405,2245 657,2545 C792,2706 920,2815 1053,2881 C1160,2933 1242,2943 1339,2913 Z" id="Shape" fill="#626262"></path>
                <path d="M1122,2794 C984,2761 1099,2695 1271,2708 C1460,2723 1446,2796 1254,2801 C1205,2803 1145,2800 1122,2794 Z" id="Shape" fill="#626262"></path>
                <path d="M1142,2569 C1135,2549 1188,2442 1204,2444 C1210,2444 1214,2475 1214,2513 L1214,2580 L1181,2583 C1158,2585 1147,2582 1142,2569 Z" id="Shape" fill="#626262"></path>
                <path d="M1266,2578 C1256,2568 1258,2457 1268,2450 C1288,2438 1347,2541 1335,2570 C1330,2585 1279,2591 1266,2578 Z" id="Shape" fill="#626262"></path>
                <path d="M1452,2385 C1390,2347 1376,2288 1407,2193 C1436,2107 1475,2048 1573,1947 C1755,1759 1978,1633 2075,1665 C2236,1719 2177,1971 1952,2186 C1772,2357 1551,2446 1452,2385 Z M1994,1823 C2024,1809 2028,1770 2000,1755 C1972,1740 1927,1743 1901,1761 C1873,1780 1873,1800 1901,1819 C1928,1838 1959,1839 1994,1823 Z" id="Shape" fill="#D0021B"></path>
                <path d="M809,2372 C620,2307 427,2142 336,1966 C295,1889 274,1802 283,1753 C291,1709 345,1656 390,1649 C437,1641 532,1675 627,1732 C865,1874 1042,2087 1056,2246 L1062,2305 L1017,2350 C975,2391 967,2395 923,2395 C896,2395 845,2384 809,2372 Z M548,1806 C592,1782 560,1735 500,1735 C455,1735 425,1754 431,1780 C438,1818 500,1831 548,1806 Z" id="Shape" fill="#D0021B"></path>
            </g>
        </g>
    </g>
</svg>